<svg version="1.0" xmlns="http://www.w3.org/2000/svg"
 width="320.000000pt" height="302.000000pt" viewBox="0 0 320.000000 302.000000"
 preserveAspectRatio="xMidYMid meet">
<metadata>
Created by potrace 1.16, written by Peter Selinger 2001-2019
</metadata>
<g transform="translate(0.000000,302.000000) scale(0.100000,-0.100000)"
fill="#000000" stroke="none">
<path d="M757 2989 c-99 -133 -196 -499 -197 -742 l0 -78 -48 -60 c-147 -181
-216 -384 -229 -665 l-6 -142 -91 -4 c-106 -5 -171 -31 -182 -73 -19 -76 190
-263 341 -305 41 -11 48 -18 84 -84 45 -82 94 -149 169 -235 47 -53 51 -62 35
-67 -127 -42 -270 -161 -291 -243 -24 -98 40 -136 228 -136 167 1 294 40 388
121 l42 36 68 -26 c157 -60 213 -69 419 -71 l192 -2 59 -55 c110 -101 283
-165 425 -156 187 12 203 127 41 285 l-64 61 25 49 c16 34 48 69 97 109 220
181 383 475 414 744 l6 58 71 49 c186 126 420 430 443 575 6 34 4 38 -42 71
-131 95 -468 187 -688 187 l-80 0 -46 51 c-27 28 -53 68 -60 92 -23 77 -62
141 -128 209 -109 114 -221 155 -387 145 -95 -6 -198 -33 -279 -74 -44 -22
-50 -23 -58 -9 -17 30 -91 111 -147 160 -121 107 -354 235 -457 252 -39 6 -43
4 -67 -27z m152 -15 c173 -65 388 -218 486 -348 l30 -39 -35 -25 c-114 -84
-227 -234 -268 -357 -80 -238 20 -507 226 -603 49 -23 70 -27 152 -26 140 0
224 45 274 146 29 58 36 156 14 203 -6 14 -9 27 -6 30 2 2 54 9 116 14 74 7
128 17 162 32 28 12 49 23 47 25 -2 3 -20 -2 -40 -11 -19 -8 -80 -19 -134 -25
-203 -22 -242 -34 -321 -97 -60 -49 -46 -53 17 -6 28 22 67 45 88 52 33 12 38
12 49 -4 21 -28 28 -105 15 -155 -23 -86 -86 -150 -175 -180 -56 -18 -199 -9
-258 17 -101 46 -190 162 -224 293 -23 92 -15 224 18 308 100 246 296 403 561
448 179 30 318 -10 435 -126 84 -84 134 -184 136 -273 0 -36 4 -63 9 -60 4 2
7 15 7 29 0 13 3 24 7 24 4 0 31 -26 60 -57 29 -32 50 -49 46 -39 -6 18 -2 19
98 12 251 -17 580 -116 665 -201 22 -22 23 -26 10 -69 -48 -158 -269 -433
-440 -546 -56 -37 -67 -49 -71 -79 -35 -226 -88 -367 -198 -531 -51 -75 -186
-218 -243 -258 l-32 -22 9 38 c13 55 11 172 -2 172 -7 0 -9 -9 -5 -24 16 -65
-28 -251 -71 -298 -58 -64 -190 41 -249 197 -12 32 -20 44 -22 32 -6 -29 56
-144 103 -193 l42 -45 -26 -15 c-14 -8 -17 -12 -6 -8 11 4 34 7 50 6 17 -2 51
-4 77 -5 40 -2 56 -9 98 -45 59 -51 110 -134 110 -179 0 -59 -47 -85 -160 -86
-141 0 -289 57 -393 153 l-59 54 56 19 c32 11 56 21 54 22 -2 2 -39 -6 -83
-17 -118 -30 -345 -30 -473 0 -117 28 -230 71 -307 117 -73 44 -84 39 -13 -6
29 -18 55 -34 57 -36 12 -9 -52 -58 -114 -88 -97 -48 -174 -66 -285 -66 -152
-1 -230 29 -230 87 0 84 136 212 273 258 47 16 49 16 80 -7 57 -42 63 -40 12
4 -141 120 -248 264 -324 433 -47 102 -65 124 -32 36 l20 -52 -27 6 c-138 33
-366 233 -333 294 16 31 88 54 184 60 l87 5 0 -34 c0 -19 4 -39 8 -46 4 -6 7
82 7 195 0 185 3 217 24 296 44 170 106 292 208 413 51 60 64 81 43 68 -13 -8
-13 36 1 166 25 248 110 531 189 632 24 31 32 30 139 -9z"/>
<path d="M809 2866 c9 -10 7 -16 -5 -27 -25 -20 -72 -120 -93 -199 -22 -80
-41 -244 -38 -330 l2 -55 73 52 c84 60 218 137 310 178 34 15 62 30 62 34 0 3
-37 56 -82 116 -81 110 -208 245 -229 245 -9 0 -9 -4 0 -14z"/>
<path d="M814 1990 c-230 -47 -376 -333 -283 -550 24 -56 101 -134 157 -157
48 -20 155 -20 211 1 66 24 143 87 183 148 56 86 73 141 73 243 0 76 -4 99
-26 145 -36 76 -71 115 -132 144 -60 29 -125 38 -183 26z m170 -35 c191 -92
216 -387 47 -564 -95 -100 -232 -137 -339 -91 -67 29 -135 103 -157 171 -27
81 -18 206 22 291 47 100 132 176 233 209 42 14 152 5 194 -16z"/>
<path d="M837 1896 c-83 -31 -156 -111 -182 -199 -28 -95 -13 -174 47 -242
142 -161 411 -29 425 210 4 62 1 76 -24 125 -38 75 -93 113 -170 117 -33 2
-74 -3 -96 -11z"/>
<path d="M2583 1961 c-24 -4 -45 -10 -48 -13 -3 -2 8 -34 24 -69 44 -98 80
-222 98 -336 15 -99 16 -102 37 -91 45 23 243 236 305 328 35 52 70 100 79
107 51 42 -344 101 -495 74z"/>
<path d="M1873 1589 c-115 -44 -212 -172 -234 -307 -23 -148 44 -296 169 -369
64 -38 174 -43 254 -13 160 60 270 258 238 428 -22 123 -108 232 -207 266 -63
22 -156 20 -220 -5z m245 -23 c58 -29 116 -92 146 -155 17 -37 21 -65 21 -141
-1 -120 -25 -187 -96 -265 -158 -172 -406 -141 -506 63 -25 51 -28 68 -28 157
0 87 3 107 27 157 30 64 93 137 146 170 86 53 202 58 290 14z"/>
<path d="M1965 1527 c-145 -56 -224 -212 -181 -359 22 -77 64 -130 127 -162
203 -101 424 119 359 356 -35 126 -190 209 -305 165z"/>
</g>
</svg>
